<svg t="1603511431180" class="icon" viewBox="0 0 1024 1024" version="1.1" xmlns="http://www.w3.org/2000/svg" p-id="6539" width="200" height="200"><path d="M480 504.746667L128 356.693333v329.813334a72.106667 72.106667 0 0 0 42.666667 64.853333L477.44 896h2.56zM512 448l363.093333-152.32a69.12 69.12 0 0 0-21.76-16.213333l-307.2-143.786667a79.786667 79.786667 0 0 0-68.266666 0L170.666667 279.466667a69.12 69.12 0 0 0-21.76 16.213333zM544 504.746667V896h2.133333l307.2-144.64a72.106667 72.106667 0 0 0 42.666667-64.426667V356.693333z" p-id="6540" fill="#3e4685"></path></svg>