<svg t="1603510438096" class="icon" viewBox="0 0 1024 1024" version="1.1" xmlns="http://www.w3.org/2000/svg" p-id="3741"
  data-spm-anchor-id="a313x.7781069.0.i22" width="200" height="200">
  <path
    d="M232 840h560V536H232v304z m280-226a48.01 48.01 0 0 1 28 87v53c0 4.4-3.6 8-8 8h-40c-4.4 0-8-3.6-8-8v-53a48.01 48.01 0 0 1 28-87z"
    fill="#e5e8f7" p-id="3742" data-spm-anchor-id="a313x.7781069.0.i19" class="selected"></path>
  <path d="M484 701v53c0 4.4 3.6 8 8 8h40c4.4 0 8-3.6 8-8v-53a48.01 48.01 0 1 0-56 0z" p-id="3743"
    data-spm-anchor-id="a313x.7781069.0.i21" class="" fill="#e5e8f7"></path>
  <path
    d="M832 464H332V240c0-30.9 25.1-56 56-56h248c30.9 0 56 25.1 56 56v68c0 4.4 3.6 8 8 8h56c4.4 0 8-3.6 8-8v-68c0-70.7-57.3-128-128-128H388c-70.7 0-128 57.3-128 128v224h-68c-17.7 0-32 14.3-32 32v384c0 17.7 14.3 32 32 32h640c17.7 0 32-14.3 32-32V496c0-17.7-14.3-32-32-32z m-40 376H232V536h560v304z"
    p-id="3744" data-spm-anchor-id="a313x.7781069.0.i16" class="" fill="#3d4785"></path>
</svg>