<svg t="1604420076910" class="icon" viewBox="0 0 1024 1024" version="1.1" xmlns="http://www.w3.org/2000/svg" p-id="6052" width="200" height="200"><path d="M512 1024A512 512 0 1 1 512 0a512 512 0 0 1 0 1024z m0-85.312a426.688 426.688 0 1 0 0-853.376 426.688 426.688 0 0 0 0 853.376zM691.2 460.8a76.8 76.8 0 1 1 0-153.6 76.8 76.8 0 0 1 0 153.6z m-358.4 0a76.8 76.8 0 1 1 0-153.6 76.8 76.8 0 0 1 0 153.6z m179.2 256c75.776 0 140.8-41.472 176.64-102.4h85.504a281.344 281.344 0 0 1-524.288 0h85.504C371.2 675.328 436.224 716.8 512 716.8z" fill="#fff" p-id="6053"></path></svg>